<svg version="1.1" viewBox="0.0 0.0 960.0 540.0" fill="none" stroke="none" stroke-linecap="square" stroke-miterlimit="10" xmlns:xlink="http://www.w3.org/1999/xlink" xmlns="http://www.w3.org/2000/svg"><clipPath id="p.0"><path d="m0 0l960.0 0l0 540.0l-960.0 0l0 -540.0z" clip-rule="nonzero"/></clipPath><g clip-path="url(#p.0)"><path fill="#ffffff" d="m0 0l960.0 0l0 540.0l-960.0 0z" fill-rule="evenodd"/><path fill="#eeeeee" d="m428.33597 78.64829l174.33072 0l0 235.05511l-174.33072 0z" fill-rule="evenodd"/><path stroke="#595959" stroke-width="1.0" stroke-linejoin="round" stroke-linecap="butt" d="m428.33597 78.64829l174.33072 0l0 235.05511l-174.33072 0z" fill-rule="evenodd"/><path fill="#000000" d="m464.92514 248.8771l-6.453125 0q-1.859375 0 -1.859375 -1.9375l0 -4.0l-5.9375 0l0 -1.640625l5.9375 0l0 -3.40625l-4.53125 0l0 -1.640625l11.796875 0l0 1.640625l-5.5625 0l0 3.40625l7.421875 0l0 1.640625l-7.421875 0l0 3.40625q0 0.890625 0.8125 0.890625l5.875 0l-0.078125 1.640625zm2.7421875 -5.875l0 -1.625l16.546875 0l0 1.625l-16.546875 0zm24.648438 -7.71875q-0.296875 0.890625 -0.75 1.71875l4.96875 0l0.828125 -0.296875l0.953125 0.953125q0.296875 0.375 -0.296875 0.59375q-0.59375 2.96875 -1.78125 5.421875l1.78125 1.1875l-1.109375 1.640625l-1.625 -1.1875q-2.15625 3.109375 -6.171875 5.125l-1.703125 -1.265625q4.453125 -1.859375 6.390625 -4.90625q-1.859375 -1.1875 -3.640625 -2.15625l0.890625 -1.328125q2.296875 1.03125 3.78125 1.921875q1.109375 -2.296875 1.34375 -4.078125l-5.421875 0q-1.40625 2.53125 -3.484375 4.609375l-1.421875 -0.96875q3.796875 -3.9375 4.984375 -8.3125l1.78125 0.734375q0.59375 0.296875 -0.296875 0.59375zm8.15625 7.71875l0 -1.625l16.546844 0l0 1.625l-16.546844 0zm27.757782 1.71875q-3.9375 -2.015625 -6.453125 -2.671875l0 7.71875l-1.703125 0l0 -14.84375l1.484375 0q0.890625 0.0625 0.21875 0.59375l0 4.671875q3.640625 1.03125 7.34375 2.8125l-0.890625 1.71875zm-0.140625 -6.53125q-1.265625 -1.5625 -2.53125 -2.53125l0.96875 -0.734375q1.265625 0.953125 2.515625 2.515625l-0.953125 0.75zm1.78125 -1.421875q-0.96875 -1.25 -2.453125 -2.4375l0.96875 -0.75q1.25 0.890625 2.4375 2.453125l-0.953125 0.734375zm5.4804688 12.40625q7.203125 -1.859375 8.09375 -7.796875l-11.28125 0l0 -1.640625l11.359375 0l0.671875 -0.21875l1.328125 0.8125q0.453125 0.375 -0.140625 0.671875q-1.1875 7.421875 -8.6875 9.65625l-1.34375 -1.484375zm8.390625 -12.03125l-10.234375 0l0 -1.625l10.234375 0l0 1.625zm4.0039062 6.53125q7.796875 -3.265625 11.8125 -9.203125l1.40625 1.1875q0.59375 0.453125 -0.515625 0.671875q-1.421875 1.859375 -3.640625 3.78125l0 10.09375l-1.703125 0l0 -8.6875q-2.609375 2.015625 -6.09375 3.640625l-1.265625 -1.484375zm27.316406 -6.15625q3.71875 4.671875 5.265625 9.875l-2.0 0.65625q-1.859375 -5.859375 -4.828125 -9.34375l1.5625 -1.1875zm-5.640625 1.703125q0.59375 0.375 -0.140625 0.671875q-1.34375 4.671875 -4.3125 8.53125l-1.703125 -1.109375q3.265625 -3.9375 4.375 -8.90625l1.78125 0.8125zm8.90625 -5.78125q0.96875 0.8125 2.375 2.296875l-0.96875 0.890625q-1.328125 -1.484375 -2.375 -2.375l0.96875 -0.8125zm-1.78125 1.109375q1.109375 1.03125 2.375 2.515625l-1.109375 0.828125q-1.109375 -1.484375 -2.296875 -2.53125l1.03125 -0.8125z" fill-rule="nonzero"/><path fill="#ffffff" d="m455.46112 253.17586l120.08038 0l0 18.399979l-120.08038 0l0 -18.399979z" fill-rule="nonzero"/><path fill="#000000" fill-opacity="0.0" d="m455.46112 254.01971l120.08038 0l0 17.625824l-120.08038 0l0 -17.625824z" fill-rule="nonzero"/><path fill="#565656" d="m456.64862 267.89584l0 -10.96875l4.140625 0q1.09375 0 1.65625 0.09375q0.8125 0.140625 1.359375 0.515625q0.546875 0.375 0.875 1.0625q0.34375 0.6875 0.34375 1.5q0 1.390625 -0.890625 2.375q-0.890625 0.96875 -3.21875 0.96875l-2.8125 0l0 4.453125l-1.453125 0zm1.453125 -5.75l2.828125 0q1.40625 0 2.0 -0.515625q0.59375 -0.53125 0.59375 -1.484375q0 -0.6875 -0.359375 -1.171875q-0.34375 -0.5 -0.90625 -0.65625q-0.375 -0.09375 -1.359375 -0.09375l-2.796875 0l0 3.921875zm8.598755 -3.671875l0 -1.546875l1.34375 0l0 1.546875l-1.34375 0zm0 9.421875l0 -7.953125l1.34375 0l0 7.953125l-1.34375 0zm8.592926 -2.90625l1.3125 0.171875q-0.203125 1.359375 -1.109375 2.140625q-0.890625 0.765625 -2.1875 0.765625q-1.640625 0 -2.640625 -1.0625q-0.984375 -1.0625 -0.984375 -3.046875q0 -1.296875 0.421875 -2.25q0.4375 -0.96875 1.3125 -1.453125q0.875 -0.484375 1.890625 -0.484375q1.296875 0 2.109375 0.65625q0.828125 0.65625 1.0625 1.859375l-1.3125 0.203125q-0.1875 -0.8125 -0.65625 -1.203125q-0.46875 -0.40625 -1.140625 -0.40625q-1.03125 0 -1.671875 0.734375q-0.625 0.71875 -0.625 2.296875q0 1.609375 0.609375 2.34375q0.609375 0.71875 1.609375 0.71875q0.78125 0 1.3125 -0.484375q0.546875 -0.5 0.6875 -1.5zm1.9765625 -1.0625q0 -2.21875 1.21875 -3.28125q1.03125 -0.875 2.5 -0.875q1.640625 0 2.671875 1.078125q1.046875 1.0625 1.046875 2.953125q0 1.546875 -0.46875 2.421875q-0.453125 0.875 -1.328125 1.359375q-0.875 0.484375 -1.921875 0.484375q-1.671875 0 -2.703125 -1.0625q-1.015625 -1.0625 -1.015625 -3.078125zm1.375 0q0 1.515625 0.65625 2.28125q0.671875 0.765625 1.6875 0.765625q1.0 0 1.671875 -0.765625q0.671875 -0.765625 0.671875 -2.328125q0 -1.484375 -0.671875 -2.234375q-0.671875 -0.765625 -1.671875 -0.765625q-1.015625 0 -1.6875 0.765625q-0.65625 0.75 -0.65625 2.28125zm7.1185303 0.671875l0 -1.34375l4.140625 0l0 1.34375l-4.140625 0zm5.76062 3.296875l0 -10.96875l2.1875 0l2.59375 7.765625q0.359375 1.078125 0.515625 1.625q0.1875 -0.59375 0.59375 -1.765625l2.625 -7.625l1.953125 0l0 10.96875l-1.40625 0l0 -9.1875l-3.1875 9.1875l-1.3125 0l-3.171875 -9.34375l0 9.34375l-1.390625 0zm12.143463 -3.96875q0 -2.21875 1.21875 -3.28125q1.03125 -0.875 2.5 -0.875q1.640625 0 2.671875 1.078125q1.046875 1.0625 1.046875 2.953125q0 1.546875 -0.46875 2.421875q-0.453125 0.875 -1.328125 1.359375q-0.875 0.484375 -1.921875 0.484375q-1.671875 0 -2.703125 -1.0625q-1.015625 -1.0625 -1.015625 -3.078125zm1.375 0q0 1.515625 0.65625 2.28125q0.671875 0.765625 1.6875 0.765625q1.0 0 1.671875 -0.765625q0.671875 -0.765625 0.671875 -2.328125q0 -1.484375 -0.671875 -2.234375q-0.671875 -0.765625 -1.671875 -0.765625q-1.015625 0 -1.6875 0.765625q-0.65625 0.75 -0.65625 2.28125zm10.58728 2.765625l0.1875 1.1875q-0.5625 0.125 -1.015625 0.125q-0.734375 0 -1.140625 -0.234375q-0.390625 -0.234375 -0.5625 -0.609375q-0.171875 -0.375 -0.171875 -1.59375l0 -4.578125l-0.984375 0l0 -1.046875l0.984375 0l0 -1.96875l1.34375 -0.796875l0 2.765625l1.359375 0l0 1.046875l-1.359375 0l0 4.65625q0 0.578125 0.0625 0.75q0.078125 0.15625 0.234375 0.25q0.171875 0.09375 0.46875 0.09375q0.21875 0 0.59375 -0.046875zm0.821167 -2.765625q0 -2.21875 1.21875 -3.28125q1.03125 -0.875 2.5 -0.875q1.640625 0 2.671875 1.078125q1.046875 1.0625 1.046875 2.953125q0 1.546875 -0.46875 2.421875q-0.453125 0.875 -1.328125 1.359375q-0.875 0.484375 -1.921875 0.484375q-1.671875 0 -2.703125 -1.0625q-1.015625 -1.0625 -1.015625 -3.078125zm1.375 0q0 1.515625 0.65625 2.28125q0.671875 0.765625 1.6875 0.765625q1.0 0 1.671875 -0.765625q0.671875 -0.765625 0.671875 -2.328125q0 -1.484375 -0.671875 -2.234375q-0.671875 -0.765625 -1.671875 -0.765625q-1.015625 0 -1.6875 0.765625q-0.65625 0.75 -0.65625 2.28125zm7.6341553 3.96875l0 -7.953125l1.203125 0l0 1.203125q0.46875 -0.84375 0.859375 -1.109375q0.390625 -0.265625 0.859375 -0.265625q0.6875 0 1.390625 0.4375l-0.46875 1.25q-0.484375 -0.296875 -0.984375 -0.296875q-0.4375 0 -0.796875 0.265625q-0.34375 0.265625 -0.5 0.734375q-0.21875 0.71875 -0.21875 1.578125l0 4.15625l-1.34375 0zm4.588745 -3.296875l0 -1.34375l4.140625 0l0 1.34375l-4.140625 0zm5.807495 3.296875l0 -10.96875l3.78125 0q1.265625 0 1.953125 0.15625q0.9375 0.21875 1.609375 0.78125q0.859375 0.734375 1.28125 1.875q0.4375 1.140625 0.4375 2.609375q0 1.25 -0.296875 2.21875q-0.28125 0.96875 -0.75 1.609375q-0.453125 0.625 -1.0 0.984375q-0.53125 0.359375 -1.296875 0.546875q-0.765625 0.1875 -1.765625 0.1875l-3.953125 0zm1.453125 -1.296875l2.34375 0q1.078125 0 1.6875 -0.203125q0.625 -0.203125 1.0 -0.5625q0.515625 -0.515625 0.796875 -1.390625q0.28125 -0.875 0.28125 -2.109375q0 -1.734375 -0.5625 -2.65625q-0.5625 -0.921875 -1.375 -1.234375q-0.578125 -0.21875 -1.875 -0.21875l-2.296875 0l0 8.375zm9.428894 1.296875l0 -7.953125l1.203125 0l0 1.203125q0.46875 -0.84375 0.859375 -1.109375q0.390625 -0.265625 0.859375 -0.265625q0.6875 0 1.390625 0.4375l-0.46875 1.25q-0.484375 -0.296875 -0.984375 -0.296875q-0.4375 0 -0.796875 0.265625q-0.34375 0.265625 -0.5 0.734375q-0.21875 0.71875 -0.21875 1.578125l0 4.15625l-1.34375 0zm5.119995 -9.421875l0 -1.546875l1.34375 0l0 1.546875l-1.34375 0zm0 9.421875l0 -7.953125l1.34375 0l0 7.953125l-1.34375 0zm5.6085205 0l-3.03125 -7.953125l1.421875 0l1.71875 4.765625q0.265625 0.765625 0.5 1.59375q0.1875 -0.625 0.5 -1.5l1.765625 -4.859375l1.390625 0l-3.015625 7.953125l-1.25 0zm10.8984375 -2.5625l1.390625 0.171875q-0.328125 1.21875 -1.21875 1.890625q-0.890625 0.671875 -2.28125 0.671875q-1.734375 0 -2.765625 -1.0625q-1.015625 -1.078125 -1.015625 -3.015625q0 -2.0 1.03125 -3.109375q1.03125 -1.109375 2.6875 -1.109375q1.59375 0 2.59375 1.09375q1.015625 1.078125 1.015625 3.046875q0 0.109375 -0.015625 0.359375l-5.921875 0q0.078125 1.3125 0.734375 2.015625q0.671875 0.6875 1.671875 0.6875q0.734375 0 1.25 -0.390625q0.53125 -0.390625 0.84375 -1.25zm-4.421875 -2.171875l4.4375 0q-0.09375 -1.0 -0.515625 -1.5q-0.640625 -0.78125 -1.671875 -0.78125q-0.921875 0 -1.5625 0.625q-0.625 0.609375 -0.6875 1.65625zm7.4935303 4.734375l0 -7.953125l1.203125 0l0 1.203125q0.46875 -0.84375 0.859375 -1.109375q0.390625 -0.265625 0.859375 -0.265625q0.6875 0 1.390625 0.4375l-0.46875 1.25q-0.484375 -0.296875 -0.984375 -0.296875q-0.4375 0 -0.796875 0.265625q-0.34375 0.265625 -0.5 0.734375q-0.21875 0.71875 -0.21875 1.578125l0 4.15625l-1.34375 0z" fill-rule="nonzero"/><path fill="#eeeeee" d="m136.11285 103.10236l128.56693 0l0 120.69291l-128.56693 0z" fill-rule="evenodd"/><path stroke="#595959" stroke-width="1.0" stroke-linejoin="round" stroke-linecap="butt" d="m136.11285 103.10236l128.56693 0l0 120.69291l-128.56693 0z" fill-rule="evenodd"/><path fill="#000000" d="m167.14633 146.50945q-0.515625 4.453125 -2.515625 2.609375q-1.859375 -1.71875 -2.375 -7.875l-2.15625 0l0 6.078125l2.296875 -0.65625l0.375 1.25l-4.90625 1.5q-0.296875 0.734375 -0.515625 0.0625l-0.515625 -1.5625l1.78125 -0.296875l0 -13.0625l1.328125 0.375q2.453125 -0.671875 4.6875 -1.484375l1.03125 1.484375q-1.109375 0.296875 -2.0 0.515625l0 4.390625l2.96875 0l0 1.40625l-2.890625 0q0.21875 3.703125 1.40625 5.9375q0.515625 0.96875 0.671875 -1.40625l1.328125 0.734375zm-12.390625 -12.546875q-1.046875 1.71875 -2.234375 3.34375q0.53125 0.453125 1.125 0.96875l2.296875 -3.125l1.109375 0.75q0.671875 0.375 -0.140625 0.4375l-3.71875 4.53125l2.890625 -0.140625q-0.4375 -0.828125 -0.890625 -1.484375l1.1875 -0.59375q1.1875 1.625 1.78125 3.328125l-1.328125 0.53125l-0.21875 -0.671875l-1.9375 0.140625l0 8.03125l-1.484375 0l0 -7.875l-2.75 0.21875q-0.140625 0.8125 -0.515625 0l-0.296875 -1.40625l1.9375 -0.078125l1.1875 -1.40625q-1.125 -1.046875 -2.609375 -2.15625l0.828125 -1.1875l0.65625 0.453125q1.1875 -1.78125 2.078125 -3.71875l1.1875 0.671875q0.671875 0.375 -0.140625 0.4375zm1.703125 9.359375q0.75 1.40625 0.96875 3.265625l-1.40625 0.375q-0.234375 -1.859375 -0.828125 -3.265625l1.265625 -0.375zm5.71875 -3.484375l0 -4.09375q-1.109375 0.296875 -2.078125 0.453125l0 3.640625l2.078125 0zm-9.875 4.453125q-0.140625 2.078125 -1.03125 4.53125l-1.421875 -0.609375q0.890625 -2.375 1.1875 -4.75l1.34375 0.375q0.59375 0.15625 -0.078125 0.453125zm23.375 -3.34375l-7.421875 0l0 -1.640625l15.21875 0l0 1.640625l-6.078125 0l0 0.96875q0 4.671875 -3.34375 7.71875l-1.484375 -1.109375q3.109375 -2.453125 3.109375 -6.609375l0 -0.96875zm-4.75 -4.53125l0 -1.625l9.875 0l0 1.625l-9.875 0zm14.550781 5.859375l0 -1.625l16.54686 0l0 1.625l-16.54686 0zm31.617172 -6.671875q0.59375 0 0.96875 -0.375q0.375 -0.375 0.375 -0.96875q0 -0.59375 -0.375 -0.953125q-0.375 -0.375 -0.96875 -0.375q-0.59375 0 -0.96875 0.375q-0.359375 0.359375 -0.359375 0.953125q0 0.59375 0.359375 0.96875q0.375 0.375 0.96875 0.375zm0 0.734375q-0.890625 0 -1.484375 -0.59375q-0.59375 -0.59375 -0.59375 -1.484375q0 -0.890625 0.59375 -1.484375q0.59375 -0.59375 1.484375 -0.59375q0.890625 0 1.484375 0.59375q0.59375 0.59375 0.59375 1.484375q0 0.890625 -0.59375 1.484375q-0.59375 0.59375 -1.484375 0.59375zm-13.28125 0.96875l0 -1.625l10.984375 0l1.921875 1.40625q-0.359375 8.984375 -10.15625 11.734375l-1.34375 -1.640625q9.28125 -2.15625 9.71875 -9.875l-11.125 0zm27.304688 4.53125q0 5.5625 -5.1875 8.015625l-1.484375 -1.265625q4.890625 -2.21875 4.96875 -6.828125l0 -7.421875l1.5625 0q0.734375 0.15625 0.140625 0.59375l0 6.90625zm-7.640625 1.625l-1.703125 0l0 -8.375l1.625 0q0.75 0.0625 0.078125 0.59375l0 7.78125zm11.207031 -1.1875l0 -1.625l16.546875 0l0 1.625l-16.546875 0z" fill-rule="nonzero"/><path fill="#000000" d="m195.79086 158.93132q0.296875 0.375 -0.296875 0.59375q-0.59375 2.96875 -1.78125 5.421875l1.78125 1.1875l-1.109375 1.640625l-1.625 -1.1875q-2.15625 3.109375 -6.171875 5.125l-1.703125 -1.265625q4.453125 -1.859375 6.390625 -4.90625q-1.859375 -1.1875 -3.640625 -2.15625l0.890625 -1.328125q2.296875 1.03125 3.78125 1.921875q1.109375 -2.296875 1.34375 -4.078125l-5.421875 0q-1.40625 2.53125 -3.484375 4.609375l-1.421875 -0.96875q3.796875 -3.9375 4.984375 -8.3125l1.78125 0.734375q0.59375 0.296875 -0.296875 0.59375q-0.296875 0.890625 -0.75 1.71875l4.96875 0l0.828125 -0.296875l0.953125 0.953125zm-0.515625 -3.40625q1.265625 0.96875 2.59375 2.453125l-0.953125 0.734375q-1.34375 -1.40625 -2.609375 -2.453125l0.96875 -0.734375zm1.703125 -1.109375q1.1875 0.8125 2.453125 2.296875l-0.96875 0.8125q-1.328125 -1.484375 -2.4375 -2.375l0.953125 -0.734375zm3.9374847 9.859375l0 -1.625l16.546875 0l0 1.625l-16.546875 0z" fill-rule="nonzero"/><path fill="#000000" d="m162.75592 196.07195l0 -13.375l1.484375 0l0 1.25q0.53125 -0.734375 1.1875 -1.09375q0.671875 -0.375 1.625 -0.375q1.234375 0 2.171875 0.640625q0.953125 0.625 1.4375 1.796875q0.484375 1.15625 0.484375 2.546875q0 1.484375 -0.53125 2.671875q-0.53125 1.1875 -1.546875 1.828125q-1.015625 0.625 -2.140625 0.625q-0.8125 0 -1.46875 -0.34375q-0.65625 -0.34375 -1.0625 -0.875l0 4.703125l-1.640625 0zm1.484375 -8.484375q0 1.859375 0.75 2.765625q0.765625 0.890625 1.828125 0.890625q1.09375 0 1.875 -0.921875q0.78125 -0.9375 0.78125 -2.875q0 -1.84375 -0.765625 -2.765625q-0.75 -0.921875 -1.8125 -0.921875q-1.046875 0 -1.859375 0.984375q-0.796875 0.96875 -0.796875 2.84375zm8.875717 4.78125l0 -9.671875l1.46875 0l0 1.46875q0.5625 -1.03125 1.03125 -1.359375q0.484375 -0.328125 1.0625 -0.328125q0.828125 0 1.6875 0.53125l-0.5625 1.515625q-0.609375 -0.359375 -1.203125 -0.359375q-0.546875 0 -0.96875 0.328125q-0.421875 0.328125 -0.609375 0.890625q-0.28125 0.875 -0.28125 1.921875l0 5.0625l-1.625 0zm5.618927 -4.84375q0 -2.6875 1.484375 -3.96875q1.25 -1.078125 3.046875 -1.078125q2.0 0 3.265625 1.3125q1.265625 1.296875 1.265625 3.609375q0 1.859375 -0.5625 2.9375q-0.5625 1.0625 -1.640625 1.65625q-1.0625 0.59375 -2.328125 0.59375q-2.03125 0 -3.28125 -1.296875q-1.25 -1.3125 -1.25 -3.765625zm1.6875 0q0 1.859375 0.796875 2.796875q0.8125 0.921875 2.046875 0.921875q1.21875 0 2.03125 -0.921875q0.8125 -0.9375 0.8125 -2.84375q0 -1.796875 -0.8125 -2.71875q-0.8125 -0.921875 -2.03125 -0.921875q-1.234375 0 -2.046875 0.921875q-0.796875 0.90625 -0.796875 2.765625zm14.480896 4.84375l0 -9.671875l1.46875 0l0 1.359375q0.453125 -0.71875 1.203125 -1.140625q0.765625 -0.4375 1.71875 -0.4375q1.078125 0 1.765625 0.453125q0.6875 0.4375 0.96875 1.234375q1.15625 -1.6875 2.984375 -1.6875q1.453125 0 2.21875 0.796875q0.78125 0.796875 0.78125 2.453125l0 6.640625l-1.640625 0l0 -6.09375q0 -0.984375 -0.15625 -1.40625q-0.15625 -0.4375 -0.578125 -0.703125q-0.421875 -0.265625 -0.984375 -0.265625q-1.015625 0 -1.6875 0.6875q-0.671875 0.671875 -0.671875 2.15625l0 5.625l-1.640625 0l0 -6.28125q0 -1.09375 -0.40625 -1.640625q-0.40625 -0.546875 -1.3125 -0.546875q-0.6875 0 -1.28125 0.359375q-0.59375 0.359375 -0.859375 1.0625q-0.25 0.703125 -0.25 2.03125l0 5.015625l-1.640625 0zm15.540802 -11.46875l0 -1.890625l1.640625 0l0 1.890625l-1.640625 0zm0 11.46875l0 -9.671875l1.640625 0l0 9.671875l-1.640625 0zm10.457321 -3.546875l1.609375 0.21875q-0.265625 1.65625 -1.359375 2.609375q-1.078125 0.9375 -2.671875 0.9375q-1.984375 0 -3.1875 -1.296875q-1.203125 -1.296875 -1.203125 -3.71875q0 -1.578125 0.515625 -2.75q0.515625 -1.171875 1.578125 -1.75q1.0625 -0.59375 2.3125 -0.59375q1.578125 0 2.578125 0.796875q1.0 0.796875 1.28125 2.265625l-1.59375 0.234375q-0.234375 -0.96875 -0.8125 -1.453125q-0.578125 -0.5 -1.390625 -0.5q-1.234375 0 -2.015625 0.890625q-0.78125 0.890625 -0.78125 2.8125q0 1.953125 0.75 2.84375q0.75 0.875 1.953125 0.875q0.96875 0 1.609375 -0.59375q0.65625 -0.59375 0.828125 -1.828125zm3.0 3.546875l0 -9.671875l1.46875 0l0 1.46875q0.5625 -1.03125 1.03125 -1.359375q0.484375 -0.328125 1.0625 -0.328125q0.828125 0 1.6875 0.53125l-0.5625 1.515625q-0.609375 -0.359375 -1.203125 -0.359375q-0.546875 0 -0.96875 0.328125q-0.421875 0.328125 -0.609375 0.890625q-0.28125 0.875 -0.28125 1.921875l0 5.0625l-1.625 0zm5.618927 -4.84375q0 -2.6875 1.484375 -3.96875q1.25 -1.078125 3.046875 -1.078125q2.0 0 3.265625 1.3125q1.265625 1.296875 1.265625 3.609375q0 1.859375 -0.5625 2.9375q-0.5625 1.0625 -1.640625 1.65625q-1.0625 0.59375 -2.328125 0.59375q-2.03125 0 -3.28125 -1.296875q-1.25 -1.3125 -1.25 -3.765625zm1.6875 0q0 1.859375 0.796875 2.796875q0.8125 0.921875 2.046875 0.921875q1.21875 0 2.03125 -0.921875q0.8125 -0.9375 0.8125 -2.84375q0 -1.796875 -0.8125 -2.71875q-0.8125 -0.921875 -2.03125 -0.921875q-1.234375 0 -2.046875 0.921875q-0.796875 0.90625 -0.796875 2.765625z" fill-rule="nonzero"/><path fill="#eeeeee" d="m356.16534 108.62992l127.77954 0l0 109.637794l-127.77954 0z" fill-rule="evenodd"/><path stroke="#595959" stroke-width="1.0" stroke-linejoin="round" stroke-linecap="butt" d="m356.16534 108.62992l127.77954 0l0 109.637794l-127.77954 0z" fill-rule="evenodd"/><path fill="#000000" d="m393.4926 136.0407l0 -1.40625l6.828125 0l0 -1.625l1.40625 0q0.59375 0.0625 0.078125 0.4375l0 1.1875l6.671875 0l0 1.40625l-6.671875 0l0 1.484375l5.1875 0l0 6.765625l-1.484375 0l0 -0.375l-3.703125 0l0 1.484375l7.71875 0l0 1.40625l-7.71875 0l0 3.125l-1.484375 0l0 -3.125l-7.71875 0l0 -1.40625l7.71875 0l0 -1.484375l-3.71875 0l0 0.4375l-1.484375 0l0 -6.828125l5.203125 0l0 -1.484375l-6.828125 0zm8.3125 6.6875l3.703125 0l0 -1.40625l-3.703125 0l0 1.40625zm-5.203125 -2.59375l3.71875 0l0 -1.421875l-3.71875 0l0 1.421875zm5.203125 0l3.703125 0l0 -1.421875l-3.703125 0l0 1.421875zm-5.203125 2.59375l3.71875 0l0 -1.40625l-3.71875 0l0 1.40625zm29.3125 5.71875q0.296875 0 0.296875 -0.296875l0 -14.484375l1.421875 0q0.59375 0.078125 0.0625 0.453125l0 14.703125q0 1.03125 -1.03125 1.03125l-1.703125 0l-0.375 -1.40625l1.328125 0zm-11.34375 -12.703125l1.703125 0l0 -2.59375l1.40625 0q0.59375 0.078125 0.078125 0.453125l0 2.140625l3.34375 0l0 1.421875l-3.34375 0l0 1.921875l4.59375 0l0 1.40625l-4.59375 0l0 1.421875l3.484375 0l0 5.484375q0 1.046875 -1.03125 1.046875l-1.125 0l-0.296875 -1.421875l0.671875 0q0.296875 0 0.296875 -0.296875l0 -3.40625l-2.0 0l0 6.609375l-1.484375 0l0 -6.609375l-1.78125 0l0 5.125l-1.484375 0l0 -6.53125l3.265625 0l0 -1.421875l-4.671875 0l0 -1.40625l4.671875 0l0 -1.921875l-2.296875 0q-0.453125 0.8125 -0.96875 1.546875l-1.1875 -0.8125q1.109375 -1.5625 2.15625 -4.078125l1.328125 0.4375q0.296875 0.296875 -0.21875 0.375l-0.515625 1.109375zm8.453125 10.328125l0 -11.0625l1.40625 0q0.59375 0.078125 0.078125 0.4375l0 10.625l-1.484375 0zm13.953125 0.515625l1.34375 -0.21875l0 -6.09375l-3.265625 0l0 -1.1875l3.265625 0l0 -2.453125l-1.046875 0q-0.515625 0.96875 -1.03125 1.5625l-1.1875 -0.734375q1.40625 -1.71875 2.140625 -4.15625l1.34375 0.296875q0.21875 0.140625 -0.15625 0.4375q-0.140625 0.59375 -0.59375 1.40625l3.5 0l0 1.1875l-1.71875 0l0 2.453125l2.53125 0l0 1.1875l-2.53125 0l0 2.0l2.015625 0l0 1.1875l-2.015625 0l0 2.671875l2.453125 -0.515625l0 1.1875l-6.671875 1.5625q-0.234375 0.515625 -0.453125 0.21875l-0.375 -1.625l1.1875 -0.15625l0 -5.421875l1.1875 0q0.59375 0.078125 0.078125 0.453125l0 4.75zm-3.1875 3.5625l-1.484375 0l0 -7.875q-0.671875 0.828125 -1.34375 1.34375l-0.65625 -1.484375q2.21875 -1.9375 3.5625 -5.125l1.25 0.890625q0.296875 0.296875 -0.21875 0.375q-0.375 0.8125 -1.109375 2.078125l0 9.796875zm0.890625 -15.734375q-1.484375 2.453125 -3.265625 3.78125l-0.890625 -1.328125q1.703125 -1.125 3.109375 -3.796875l1.1875 0.96875q0.53125 0.296875 -0.140625 0.375zm12.46875 11.421875q0 1.1875 -1.1875 1.1875l-0.890625 0l-0.375 -1.40625l0.671875 0q0.296875 0 0.296875 -0.296875l0 -9.203125l-1.640625 0l0 13.890625l-1.484375 0l0 -15.078125l4.609375 0l0 10.90625z" fill-rule="nonzero"/><path fill="#000000" d="m366.3841 170.36882l0 -9.671875l1.46875 0l0 1.46875q0.5625 -1.03125 1.03125 -1.359375q0.484375 -0.328125 1.0625 -0.328125q0.828125 0 1.6875 0.53125l-0.5625 1.515625q-0.609375 -0.359375 -1.203125 -0.359375q-0.546875 0 -0.96875 0.328125q-0.421875 0.328125 -0.609375 0.890625q-0.28125 0.875 -0.28125 1.921875l0 5.0625l-1.625 0zm12.540802 -1.1875q-0.921875 0.765625 -1.765625 1.09375q-0.828125 0.3125 -1.796875 0.3125q-1.59375 0 -2.453125 -0.78125q-0.859375 -0.78125 -0.859375 -1.984375q0 -0.71875 0.328125 -1.296875q0.328125 -0.59375 0.84375 -0.9375q0.53125 -0.359375 1.1875 -0.546875q0.46875 -0.125 1.453125 -0.25q1.984375 -0.234375 2.921875 -0.5625q0.015625 -0.34375 0.015625 -0.421875q0 -1.0 -0.46875 -1.421875q-0.625 -0.546875 -1.875 -0.546875q-1.15625 0 -1.703125 0.40625q-0.546875 0.40625 -0.8125 1.421875l-1.609375 -0.21875q0.21875 -1.015625 0.71875 -1.640625q0.5 -0.640625 1.453125 -0.984375q0.953125 -0.34375 2.1875 -0.34375q1.25 0 2.015625 0.296875q0.78125 0.28125 1.140625 0.734375q0.375 0.4375 0.515625 1.109375q0.078125 0.421875 0.078125 1.515625l0 2.1875q0 2.28125 0.109375 2.890625q0.109375 0.59375 0.40625 1.15625l-1.703125 0q-0.265625 -0.515625 -0.328125 -1.1875zm-0.140625 -3.671875q-0.890625 0.375 -2.671875 0.625q-1.015625 0.140625 -1.4375 0.328125q-0.421875 0.1875 -0.65625 0.53125q-0.21875 0.34375 -0.21875 0.78125q0 0.65625 0.5 1.09375q0.5 0.4375 1.453125 0.4375q0.9375 0 1.671875 -0.40625q0.75 -0.421875 1.09375 -1.140625q0.265625 -0.5625 0.265625 -1.640625l0 -0.609375zm3.5476074 1.96875l1.625 -0.25q0.125 0.96875 0.75 1.5q0.625 0.515625 1.75 0.515625q1.125 0 1.671875 -0.453125q0.546875 -0.46875 0.546875 -1.09375q0 -0.546875 -0.484375 -0.875q-0.328125 -0.21875 -1.671875 -0.546875q-1.8125 -0.46875 -2.515625 -0.796875q-0.6875 -0.328125 -1.046875 -0.90625q-0.359375 -0.59375 -0.359375 -1.3125q0 -0.640625 0.296875 -1.1875q0.296875 -0.5625 0.8125 -0.921875q0.375 -0.28125 1.03125 -0.46875q0.671875 -0.203125 1.421875 -0.203125q1.140625 0 2.0 0.328125q0.859375 0.328125 1.265625 0.890625q0.421875 0.5625 0.578125 1.5l-1.609375 0.21875q-0.109375 -0.75 -0.640625 -1.171875q-0.515625 -0.421875 -1.46875 -0.421875q-1.140625 0 -1.625 0.375q-0.46875 0.375 -0.46875 0.875q0 0.3125 0.1875 0.578125q0.203125 0.265625 0.640625 0.4375q0.234375 0.09375 1.4375 0.421875q1.75 0.453125 2.4375 0.75q0.6875 0.296875 1.078125 0.859375q0.390625 0.5625 0.390625 1.40625q0 0.828125 -0.484375 1.546875q-0.46875 0.71875 -1.375 1.125q-0.90625 0.390625 -2.046875 0.390625q-1.875 0 -2.875 -0.78125q-0.984375 -0.78125 -1.25 -2.328125zm9.984375 6.59375l0 -13.375l1.484375 0l0 1.25q0.53125 -0.734375 1.1875 -1.09375q0.671875 -0.375 1.625 -0.375q1.234375 0 2.171875 0.640625q0.953125 0.625 1.4375 1.796875q0.484375 1.15625 0.484375 2.546875q0 1.484375 -0.53125 2.671875q-0.53125 1.1875 -1.546875 1.828125q-1.015625 0.625 -2.140625 0.625q-0.8125 0 -1.46875 -0.34375q-0.65625 -0.34375 -1.0625 -0.875l0 4.703125l-1.640625 0zm1.484375 -8.484375q0 1.859375 0.75 2.765625q0.765625 0.890625 1.828125 0.890625q1.09375 0 1.875 -0.921875q0.78125 -0.9375 0.78125 -2.875q0 -1.84375 -0.765625 -2.765625q-0.75 -0.921875 -1.8125 -0.921875q-1.046875 0 -1.859375 0.984375q-0.796875 0.96875 -0.796875 2.84375zm10.391327 4.78125l-1.515625 0l0 -13.359375l1.640625 0l0 4.765625q1.046875 -1.296875 2.65625 -1.296875q0.890625 0 1.6875 0.359375q0.796875 0.359375 1.3125 1.015625q0.515625 0.640625 0.796875 1.5625q0.296875 0.921875 0.296875 1.96875q0 2.484375 -1.234375 3.84375q-1.21875 1.359375 -2.953125 1.359375q-1.703125 0 -2.6875 -1.4375l0 1.21875zm-0.015625 -4.90625q0 1.734375 0.484375 2.515625q0.765625 1.265625 2.09375 1.265625q1.078125 0 1.859375 -0.9375q0.78125 -0.9375 0.78125 -2.78125q0 -1.890625 -0.75 -2.796875q-0.75 -0.90625 -1.828125 -0.90625q-1.0625 0 -1.859375 0.9375q-0.78125 0.9375 -0.78125 2.703125zm15.516357 1.796875l1.6875 0.203125q-0.40625 1.484375 -1.484375 2.3125q-1.078125 0.8125 -2.765625 0.8125q-2.125 0 -3.375 -1.296875q-1.234375 -1.3125 -1.234375 -3.671875q0 -2.453125 1.25 -3.796875q1.265625 -1.34375 3.265625 -1.34375q1.9375 0 3.15625 1.328125q1.234375 1.3125 1.234375 3.703125q0 0.15625 0 0.4375l-7.21875 0q0.09375 1.59375 0.90625 2.453125q0.8125 0.84375 2.015625 0.84375q0.90625 0 1.546875 -0.46875q0.640625 -0.484375 1.015625 -1.515625zm-5.390625 -2.65625l5.40625 0q-0.109375 -1.21875 -0.625 -1.828125q-0.78125 -0.953125 -2.03125 -0.953125q-1.125 0 -1.90625 0.765625q-0.765625 0.75 -0.84375 2.015625zm9.125702 5.765625l0 -9.671875l1.46875 0l0 1.46875q0.5625 -1.03125 1.03125 -1.359375q0.484375 -0.328125 1.0625 -0.328125q0.828125 0 1.6875 0.53125l-0.5625 1.515625q-0.609375 -0.359375 -1.203125 -0.359375q-0.546875 0 -0.96875 0.328125q-0.421875 0.328125 -0.609375 0.890625q-0.28125 0.875 -0.28125 1.921875l0 5.0625l-1.625 0zm6.212677 0l0 -9.671875l1.46875 0l0 1.46875q0.5625 -1.03125 1.03125 -1.359375q0.484375 -0.328125 1.0625 -0.328125q0.828125 0 1.6875 0.53125l-0.5625 1.515625q-0.609375 -0.359375 -1.203125 -0.359375q-0.546875 0 -0.96875 0.328125q-0.421875 0.328125 -0.609375 0.890625q-0.28125 0.875 -0.28125 1.921875l0 5.0625l-1.625 0zm6.150177 3.71875l-0.1875 -1.53125q0.546875 0.140625 0.9375 0.140625q0.546875 0 0.875 -0.1875q0.328125 -0.171875 0.546875 -0.5q0.15625 -0.25 0.5 -1.21875q0.046875 -0.140625 0.140625 -0.40625l-3.671875 -9.6875l1.765625 0l2.015625 5.59375q0.390625 1.078125 0.703125 2.25q0.28125 -1.125 0.671875 -2.203125l2.078125 -5.640625l1.640625 0l-3.6875 9.828125q-0.59375 1.609375 -0.921875 2.203125q-0.4375 0.8125 -1.0 1.1875q-0.5625 0.375 -1.34375 0.375q-0.484375 0 -1.0625 -0.203125zm14.589569 -0.015625l0 -13.375l1.484375 0l0 1.25q0.53125 -0.734375 1.1875 -1.09375q0.671875 -0.375 1.625 -0.375q1.234375 0 2.171875 0.640625q0.953125 0.625 1.4375 1.796875q0.484375 1.15625 0.484375 2.546875q0 1.484375 -0.53125 2.671875q-0.53125 1.1875 -1.546875 1.828125q-1.015625 0.625 -2.140625 0.625q-0.8125 0 -1.46875 -0.34375q-0.65625 -0.34375 -1.0625 -0.875l0 4.703125l-1.640625 0zm1.484375 -8.484375q0 1.859375 0.75 2.765625q0.765625 0.890625 1.828125 0.890625q1.09375 0 1.875 -0.921875q0.78125 -0.9375 0.78125 -2.875q0 -1.84375 -0.765625 -2.765625q-0.75 -0.921875 -1.8125 -0.921875q-1.046875 0 -1.859375 0.984375q-0.796875 0.96875 -0.796875 2.84375zm8.891327 -6.6875l0 -1.890625l1.640625 0l0 1.890625l-1.640625 0zm0 11.46875l0 -9.671875l1.640625 0l0 9.671875l-1.640625 0z" fill-rule="nonzero"/><path fill="#000000" d="m366.39972 196.07195l0 -13.375l1.484375 0l0 1.25q0.53125 -0.734375 1.1875 -1.09375q0.671875 -0.375 1.625 -0.375q1.234375 0 2.171875 0.640625q0.953125 0.625 1.4375 1.796875q0.484375 1.15625 0.484375 2.546875q0 1.484375 -0.53125 2.671875q-0.53125 1.1875 -1.546875 1.828125q-1.015625 0.625 -2.140625 0.625q-0.8125 0 -1.46875 -0.34375q-0.65625 -0.34375 -1.0625 -0.875l0 4.703125l-1.640625 0zm1.484375 -8.484375q0 1.859375 0.75 2.765625q0.765625 0.890625 1.828125 0.890625q1.09375 0 1.875 -0.921875q0.78125 -0.9375 0.78125 -2.875q0 -1.84375 -0.765625 -2.765625q-0.75 -0.921875 -1.8125 -0.921875q-1.046875 0 -1.859375 0.984375q-0.796875 0.96875 -0.796875 2.84375zm8.891357 -6.6875l0 -1.890625l1.640625 0l0 1.890625l-1.640625 0zm0 11.46875l0 -9.671875l1.640625 0l0 9.671875l-1.640625 0zm10.457306 -3.546875l1.609375 0.21875q-0.265625 1.65625 -1.359375 2.609375q-1.078125 0.9375 -2.671875 0.9375q-1.984375 0 -3.1875 -1.296875q-1.203125 -1.296875 -1.203125 -3.71875q0 -1.578125 0.515625 -2.75q0.515625 -1.171875 1.578125 -1.75q1.0625 -0.59375 2.3125 -0.59375q1.578125 0 2.578125 0.796875q1.0 0.796875 1.28125 2.265625l-1.59375 0.234375q-0.234375 -0.96875 -0.8125 -1.453125q-0.578125 -0.5 -1.390625 -0.5q-1.234375 0 -2.015625 0.890625q-0.78125 0.890625 -0.78125 2.8125q0 1.953125 0.75 2.84375q0.75 0.875 1.953125 0.875q0.96875 0 1.609375 -0.59375q0.65625 -0.59375 0.828125 -1.828125zm2.40625 -1.296875q0 -2.6875 1.484375 -3.96875q1.25 -1.078125 3.046875 -1.078125q2.0 0 3.265625 1.3125q1.265625 1.296875 1.265625 3.609375q0 1.859375 -0.5625 2.9375q-0.5625 1.0625 -1.640625 1.65625q-1.0625 0.59375 -2.328125 0.59375q-2.03125 0 -3.28125 -1.296875q-1.25 -1.3125 -1.25 -3.765625zm1.6875 0q0 1.859375 0.796875 2.796875q0.8125 0.921875 2.046875 0.921875q1.21875 0 2.03125 -0.921875q0.8125 -0.9375 0.8125 -2.84375q0 -1.796875 -0.8125 -2.71875q-0.8125 -0.921875 -2.03125 -0.921875q-1.234375 0 -2.046875 0.921875q-0.796875 0.90625 -0.796875 2.765625z" fill-rule="nonzero"/><path fill="#eeeeee" d="m158.55643 329.49606l291.87402 0l0 61.543304l-291.87402 0z" fill-rule="evenodd"/><path stroke="#595959" stroke-width="1.0" stroke-linejoin="round" stroke-linecap="butt" d="m158.55643 329.49606l291.87402 0l0 61.543304l-291.87402 0z" fill-rule="evenodd"/><path fill="#000000" d="m278.86093 367.1877l0 -1.421875q-1.125 1.640625 -3.0625 1.640625q-0.859375 0 -1.609375 -0.328125q-0.734375 -0.328125 -1.09375 -0.828125q-0.359375 -0.5 -0.5 -1.21875q-0.109375 -0.46875 -0.109375 -1.53125l0 -5.984375l1.640625 0l0 5.359375q0 1.28125 0.109375 1.734375q0.15625 0.640625 0.65625 1.015625q0.5 0.375 1.234375 0.375q0.734375 0 1.375 -0.375q0.65625 -0.390625 0.921875 -1.03125q0.265625 -0.65625 0.265625 -1.890625l0 -5.1875l1.640625 0l0 9.671875l-1.46875 0zm3.3913574 -2.890625l1.625 -0.25q0.125 0.96875 0.75 1.5q0.625 0.515625 1.75 0.515625q1.125 0 1.671875 -0.453125q0.546875 -0.46875 0.546875 -1.09375q0 -0.546875 -0.484375 -0.875q-0.328125 -0.21875 -1.671875 -0.546875q-1.8125 -0.46875 -2.515625 -0.796875q-0.6875 -0.328125 -1.046875 -0.90625q-0.359375 -0.59375 -0.359375 -1.3125q0 -0.640625 0.296875 -1.1875q0.296875 -0.5625 0.8125 -0.921875q0.375 -0.28125 1.03125 -0.46875q0.671875 -0.203125 1.421875 -0.203125q1.140625 0 2.0 0.328125q0.859375 0.328125 1.265625 0.890625q0.421875 0.5625 0.578125 1.5l-1.609375 0.21875q-0.109375 -0.75 -0.640625 -1.171875q-0.515625 -0.421875 -1.46875 -0.421875q-1.140625 0 -1.625 0.375q-0.46875 0.375 -0.46875 0.875q0 0.3125 0.1875 0.578125q0.203125 0.265625 0.640625 0.4375q0.234375 0.09375 1.4375 0.421875q1.75 0.453125 2.4375 0.75q0.6875 0.296875 1.078125 0.859375q0.390625 0.5625 0.390625 1.40625q0 0.828125 -0.484375 1.546875q-0.46875 0.71875 -1.375 1.125q-0.90625 0.390625 -2.046875 0.390625q-1.875 0 -2.875 -0.78125q-0.984375 -0.78125 -1.25 -2.328125zm11.484375 2.890625l-1.515625 0l0 -13.359375l1.640625 0l0 4.765625q1.046875 -1.296875 2.65625 -1.296875q0.890625 0 1.6875 0.359375q0.796875 0.359375 1.3125 1.015625q0.515625 0.640625 0.796875 1.5625q0.296875 0.921875 0.296875 1.96875q0 2.484375 -1.234375 3.84375q-1.21875 1.359375 -2.953125 1.359375q-1.703125 0 -2.6875 -1.4375l0 1.21875zm-0.015625 -4.90625q0 1.734375 0.484375 2.515625q0.765625 1.265625 2.09375 1.265625q1.078125 0 1.859375 -0.9375q0.78125 -0.9375 0.78125 -2.78125q0 -1.890625 -0.75 -2.796875q-0.75 -0.90625 -1.828125 -0.90625q-1.0625 0 -1.859375 0.9375q-0.78125 0.9375 -0.78125 2.703125zm14.074646 4.90625l0 -13.359375l1.640625 0l0 4.796875q1.140625 -1.328125 2.890625 -1.328125q1.078125 0 1.859375 0.421875q0.796875 0.421875 1.140625 1.171875q0.34375 0.75 0.34375 2.171875l0 6.125l-1.640625 0l0 -6.125q0 -1.234375 -0.53125 -1.796875q-0.53125 -0.5625 -1.515625 -0.5625q-0.71875 0 -1.359375 0.390625q-0.640625 0.375 -0.921875 1.015625q-0.265625 0.640625 -0.265625 1.78125l0 5.296875l-1.640625 0zm16.703827 0l0 -1.421875q-1.125 1.640625 -3.0625 1.640625q-0.859375 0 -1.609375 -0.328125q-0.734375 -0.328125 -1.09375 -0.828125q-0.359375 -0.5 -0.5 -1.21875q-0.109375 -0.46875 -0.109375 -1.53125l0 -5.984375l1.640625 0l0 5.359375q0 1.28125 0.109375 1.734375q0.15625 0.640625 0.65625 1.015625q0.5 0.375 1.234375 0.375q0.734375 0 1.375 -0.375q0.65625 -0.390625 0.921875 -1.03125q0.265625 -0.65625 0.265625 -1.890625l0 -5.1875l1.640625 0l0 9.671875l-1.46875 0zm5.5476074 0l-1.515625 0l0 -13.359375l1.640625 0l0 4.765625q1.046875 -1.296875 2.65625 -1.296875q0.890625 0 1.6875 0.359375q0.796875 0.359375 1.3125 1.015625q0.515625 0.640625 0.796875 1.5625q0.296875 0.921875 0.296875 1.96875q0 2.484375 -1.234375 3.84375q-1.21875 1.359375 -2.953125 1.359375q-1.703125 0 -2.6875 -1.4375l0 1.21875zm-0.015625 -4.90625q0 1.734375 0.484375 2.515625q0.765625 1.265625 2.09375 1.265625q1.078125 0 1.859375 -0.9375q0.78125 -0.9375 0.78125 -2.78125q0 -1.890625 -0.75 -2.796875q-0.75 -0.90625 -1.828125 -0.90625q-1.0625 0 -1.859375 0.9375q-0.78125 0.9375 -0.78125 2.703125z" fill-rule="nonzero"/><path fill="#000000" fill-opacity="0.0" d="m200.36482 330.2861l0 -54.4252l0.06300354 0l0 -54.4252" fill-rule="evenodd"/><path stroke="#595959" stroke-width="8.0" stroke-linejoin="round" stroke-linecap="butt" d="m200.36482 330.2861l0 -54.4252l0.06300354 0l0 -54.4252" fill-rule="evenodd"/><path fill="#000000" fill-opacity="0.0" d="m321.0551 329.49606l0 -125.42226l35.496063 0l0 -0.7824707" fill-rule="evenodd"/><path stroke="#595959" stroke-width="8.0" stroke-linejoin="round" stroke-linecap="butt" d="m321.0551 329.49606l0 -125.42226l35.496063 0l0 -0.7824707" fill-rule="evenodd"/><path fill="#000000" fill-opacity="0.0" d="m395.2047 328.70865l0 -66.262146l33.921265 0l0 0.78182983" fill-rule="evenodd"/><path stroke="#595959" stroke-width="8.0" stroke-linejoin="round" stroke-linecap="butt" d="m395.2047 328.70865l0 -66.262146l33.921265 0l0 0.78182983" fill-rule="evenodd"/><path fill="#eeeeee" d="m163.28871 434.41208l189.32283 0l0 100.188995l-189.32283 0z" fill-rule="evenodd"/><path stroke="#595959" stroke-width="1.0" stroke-linejoin="round" stroke-linecap="butt" d="m163.28871 434.41208l189.32283 0l0 100.188995l-189.32283 0z" fill-rule="evenodd"/><path fill="#000000" d="m196.68646 491.20782l-6.453125 0q-1.859375 0 -1.859375 -1.9375l0 -4.0l-5.9375 0l0 -1.640625l5.9375 0l0 -3.40625l-4.53125 0l0 -1.640625l11.796875 0l0 1.640625l-5.5625 0l0 3.40625l7.421875 0l0 1.640625l-7.421875 0l0 3.40625q0 0.890625 0.8125 0.890625l5.875 0l-0.078125 1.640625zm14.6171875 -11.359375q3.71875 4.671875 5.265625 9.875l-2.0 0.65625q-1.859375 -5.859375 -4.828125 -9.34375l1.5625 -1.1875zm-5.640625 1.703125q0.59375 0.375 -0.140625 0.671875q-1.34375 4.671875 -4.3125 8.53125l-1.703125 -1.109375q3.265625 -3.9375 4.375 -8.90625l1.78125 0.8125zm8.90625 -5.78125q0.96875 0.8125 2.375 2.296875l-0.96875 0.890625q-1.328125 -1.484375 -2.375 -2.375l0.96875 -0.8125zm-1.78125 1.109375q1.109375 1.03125 2.375 2.515625l-1.109375 0.828125q-1.109375 -1.484375 -2.296875 -2.53125l1.03125 -0.8125zm5.859375 9.125q7.796875 -3.265625 11.8125 -9.203125l1.40625 1.1875q0.59375 0.453125 -0.515625 0.671875q-1.421875 1.859375 -3.640625 3.78125l0 10.09375l-1.703125 0l0 -8.6875q-2.609375 2.015625 -6.09375 3.640625l-1.265625 -1.484375zm25.691406 3.265625q3.265625 -1.265625 6.0 -5.046875l1.046875 1.40625q-2.828125 3.859375 -7.125 5.578125l-0.59375 0.296875l-1.1875 -0.890625l0.140625 -0.375l0 -11.953125l1.5625 0q0.671875 0.15625 0.15625 0.59375l0 10.390625zm-9.953125 2.0q3.71875 -3.5625 3.71875 -8.828125l0 -3.34375l1.546875 0q0.671875 0.15625 0.15625 0.59375l0 2.671875q0 6.234375 -3.9375 9.875l-1.484375 -0.96875zm30.578125 -11.421875q3.71875 4.671875 5.265625 9.875l-2.0 0.65625q-1.859375 -5.859375 -4.828125 -9.34375l1.5625 -1.1875zm-5.640625 1.703125q0.59375 0.375 -0.140625 0.671875q-1.34375 4.671875 -4.3125 8.53125l-1.703125 -1.109375q3.265625 -3.9375 4.375 -8.90625l1.78125 0.8125zm8.90625 -5.78125q0.96875 0.8125 2.375 2.296875l-0.96875 0.890625q-1.328125 -1.484375 -2.375 -2.375l0.96875 -0.8125zm-1.78125 1.109375q1.109375 1.03125 2.375 2.515625l-1.109375 0.828125q-1.109375 -1.484375 -2.296875 -2.53125l1.03125 -0.8125zm17.515625 5.484375q-0.515625 4.828125 -2.671875 6.984375q-2.15625 2.15625 -5.640625 3.421875l-0.96875 -1.421875q3.421875 -1.109375 5.34375 -3.046875q2.078125 -2.078125 2.375 -7.046875l1.5625 0.515625q0.671875 0.234375 0 0.59375zm-6.3125 2.671875q-0.890625 -2.0 -1.78125 -3.328125l1.421875 -0.75q1.109375 1.40625 1.921875 3.34375l-1.5625 0.734375zm-3.78125 1.125q-0.890625 -2.078125 -1.859375 -3.5l1.484375 -0.734375q1.046875 1.40625 1.859375 3.40625l-1.484375 0.828125zm19.21875 -2.15625l-7.421875 0l0 -1.640625l15.21875 0l0 1.640625l-6.078125 0l0 0.96875q0 4.671875 -3.34375 7.71875l-1.484375 -1.109375q3.109375 -2.453125 3.109375 -6.609375l0 -0.96875zm-4.75 -4.53125l0 -1.625l9.875 0l0 1.625l-9.875 0zm25.160156 5.421875q0 5.5625 -5.1875 8.015625l-1.484375 -1.265625q4.890625 -2.21875 4.96875 -6.828125l0 -7.421875l1.5625 0q0.734375 0.15625 0.140625 0.59375l0 6.90625zm-7.640625 1.625l-1.703125 0l0 -8.375l1.625 0q0.75 0.0625 0.078125 0.59375l0 7.78125zm11.207031 -1.1875l0 -1.625l16.546875 0l0 1.625l-16.546875 0z" fill-rule="nonzero"/><path fill="#000000" fill-opacity="0.0" d="m163.28871 484.50656l-29.73227 0l0 -124.25195l25.007858 0" fill-rule="evenodd"/><path stroke="#595959" stroke-width="8.0" stroke-linejoin="round" stroke-linecap="butt" d="m163.28871 484.50656l-29.73227 0l0 -124.25195l25.007858 0" fill-rule="evenodd"/><path fill="#000000" fill-opacity="0.0" d="m265.04724 130.71391l92.28348 0" fill-rule="evenodd"/><path stroke="#595959" stroke-width="1.0" stroke-linejoin="round" stroke-linecap="butt" d="m265.04724 130.71391l92.28348 0" fill-rule="evenodd"/><path fill="#000000" fill-opacity="0.0" d="m259.9475 103.10236l35.496063 0l0 32.314964l-35.496063 0z" fill-rule="evenodd"/><path fill="#000000" d="m271.71313 122.34236l0 -6.734375l-2.515625 0l0 -0.890625l6.046875 0l0 0.890625l-2.53125 0l0 6.734375l-1.0 0zm3.7904968 0l2.953125 -3.96875l-2.609375 -3.65625l1.203125 0l1.390625 1.953125q0.421875 0.609375 0.609375 0.9375q0.25 -0.421875 0.609375 -0.875l1.53125 -2.015625l1.09375 0l-2.671875 3.59375l2.890625 4.03125l-1.25 0l-1.921875 -2.71875q-0.171875 -0.234375 -0.34375 -0.515625q-0.25 0.421875 -0.359375 0.578125l-1.90625 2.65625l-1.21875 0z" fill-rule="nonzero"/><path fill="#000000" fill-opacity="0.0" d="m321.05536 103.10236l43.212616 0l0 32.314964l-43.212616 0z" fill-rule="evenodd"/><path fill="#000000" d="m334.0241 122.34236l-0.9375 0l0 -5.96875q-0.34375 0.328125 -0.890625 0.65625q-0.546875 0.3125 -0.984375 0.46875l0 -0.90625q0.796875 -0.359375 1.375 -0.890625q0.59375 -0.53125 0.828125 -1.015625l0.609375 0l0 7.65625zm2.6608887 2.125l0 -7.65625l0.859375 0l0 0.71875q0.296875 -0.421875 0.671875 -0.625q0.390625 -0.21875 0.921875 -0.21875q0.703125 0 1.25 0.375q0.546875 0.359375 0.8125 1.03125q0.28125 0.65625 0.28125 1.453125q0 0.84375 -0.3125 1.53125q-0.296875 0.671875 -0.875 1.03125q-0.578125 0.359375 -1.21875 0.359375q-0.46875 0 -0.84375 -0.1875q-0.375 -0.203125 -0.609375 -0.515625l0 2.703125l-0.9375 0zm0.84375 -4.859375q0 1.0625 0.4375 1.578125q0.4375 0.515625 1.046875 0.515625q0.625 0 1.0625 -0.53125q0.453125 -0.53125 0.453125 -1.640625q0 -1.046875 -0.4375 -1.578125q-0.4375 -0.53125 -1.046875 -0.53125q-0.59375 0 -1.0625 0.5625q-0.453125 0.5625 -0.453125 1.625zm5.082733 -3.8125l0 -1.078125l0.9375 0l0 1.078125l-0.9375 0zm0 6.546875l0 -5.53125l0.9375 0l0 5.53125l-0.9375 0zm2.3674927 0l0 -5.53125l0.84375 0l0 0.796875q0.609375 -0.921875 1.75 -0.921875q0.5 0 0.921875 0.1875q0.421875 0.171875 0.625 0.46875q0.21875 0.296875 0.296875 0.6875q0.046875 0.265625 0.046875 0.921875l0 3.390625l-0.9375 0l0 -3.359375q0 -0.578125 -0.109375 -0.859375q-0.109375 -0.28125 -0.390625 -0.453125q-0.265625 -0.171875 -0.640625 -0.171875q-0.59375 0 -1.03125 0.390625q-0.4375 0.375 -0.4375 1.4375l0 3.015625l-0.9375 0z" fill-rule="nonzero"/><path fill="#eeeeee" d="m145.93439 25.797901l114.01575 0l0 52.85039l-114.01575 0z" fill-rule="evenodd"/><path stroke="#595959" stroke-width="1.0" stroke-linejoin="round" stroke-linecap="butt" d="m145.93439 25.797901l114.01575 0l0 52.85039l-114.01575 0z" fill-rule="evenodd"/><path fill="#000000" d="m166.55939 48.57122q-0.328125 2.8125 -1.59375 1.640625q-1.171875 -1.078125 -1.5 -4.96875l-1.359375 0l0 3.84375l1.453125 -0.421875l0.234375 0.796875l-3.09375 0.9375q-0.1875 0.46875 -0.328125 0.046875l-0.328125 -0.984375l1.125 -0.1875l0 -8.25l0.84375 0.234375q1.546875 -0.421875 2.953125 -0.9375l0.65625 0.9375q-0.703125 0.1875 -1.265625 0.328125l0 2.765625l1.875 0l0 0.890625l-1.828125 0q0.140625 2.34375 0.890625 3.75q0.328125 0.609375 0.421875 -0.890625l0.84375 0.46875zm-7.828125 -7.921875q-0.65625 1.078125 -1.40625 2.109375q0.328125 0.28125 0.703125 0.609375l1.453125 -1.96875l0.703125 0.46875q0.421875 0.234375 -0.09375 0.28125l-2.34375 2.859375l1.828125 -0.09375q-0.28125 -0.515625 -0.5625 -0.9375l0.75 -0.375q0.75 1.03125 1.125 2.109375l-0.84375 0.328125l-0.140625 -0.421875l-1.21875 0.09375l0 5.0625l-0.9375 0l0 -4.96875l-1.734375 0.140625q-0.09375 0.515625 -0.328125 0l-0.1875 -0.890625l1.21875 -0.046875l0.75 -0.890625q-0.703125 -0.65625 -1.640625 -1.359375l0.515625 -0.75l0.421875 0.28125q0.75 -1.125 1.3125 -2.34375l0.75 0.421875q0.421875 0.234375 -0.09375 0.28125zm1.078125 5.90625q0.46875 0.890625 0.609375 2.0625l-0.890625 0.234375q-0.140625 -1.171875 -0.515625 -2.0625l0.796875 -0.234375zm3.609375 -2.203125l0 -2.578125q-0.703125 0.1875 -1.3125 0.28125l0 2.296875l1.3125 0zm-6.234375 2.8125q-0.09375 1.3125 -0.65625 2.859375l-0.890625 -0.375q0.5625 -1.5 0.75 -3.0l0.84375 0.234375q0.375 0.09375 -0.046875 0.28125zm14.765625 -2.109375l-4.6875 0l0 -1.03125l9.609375 0l0 1.03125l-3.84375 0l0 0.609375q0 2.953125 -2.109375 4.875l-0.9375 -0.703125q1.96875 -1.546875 1.96875 -4.171875l0 -0.609375zm-3.0 -2.859375l0 -1.03125l6.234375 0l0 1.03125l-6.234375 0zm9.1875 3.703125l0 -1.03125l10.453125 0l0 1.03125l-10.453125 0zm19.96875 -4.21875q0.375 0 0.609375 -0.234375q0.234375 -0.234375 0.234375 -0.609375q0 -0.375 -0.234375 -0.609375q-0.234375 -0.234375 -0.609375 -0.234375q-0.375 0 -0.609375 0.234375q-0.234375 0.234375 -0.234375 0.609375q0 0.375 0.234375 0.609375q0.234375 0.234375 0.609375 0.234375zm0 0.46875q-0.5625 0 -0.9375 -0.375q-0.375 -0.375 -0.375 -0.9375q0 -0.5625 0.375 -0.9375q0.375 -0.375 0.9375 -0.375q0.5625 0 0.9375 0.375q0.375 0.375 0.375 0.9375q0 0.5625 -0.375 0.9375q-0.375 0.375 -0.9375 0.375zm-8.390625 0.609375l0 -1.03125l6.9375 0l1.21875 0.890625q-0.234375 5.671875 -6.421875 7.40625l-0.84375 -1.03125q5.859375 -1.359375 6.140625 -6.234375l-7.03125 0zm11.484375 6.234375q5.859375 -1.359375 6.140625 -6.234375l-7.03125 0l0 -1.03125l7.125 0l0.65625 -0.140625l0.515625 0.46875q-0.1875 6.234375 -6.5625 7.96875l-0.84375 -1.03125zm13.03125 1.6875l-0.9375 0l0 -4.359375q-1.03125 0.796875 -3.09375 1.828125l-0.65625 -0.796875q4.453125 -2.15625 6.09375 -4.734375l0.796875 0.609375q0.28125 0.234375 -0.1875 0.328125q-0.796875 0.984375 -2.015625 2.015625l0 5.109375zm3.515625 -4.78125l0 -1.03125l10.453125 0l0 1.03125l-10.453125 0zm17.53125 1.078125q-2.484375 -1.265625 -4.078125 -1.6875l0 4.875l-1.078125 0l0 -9.375l0.9375 0q0.5625 0.046875 0.140625 0.375l0 2.953125q2.296875 0.65625 4.640625 1.78125l-0.5625 1.078125zm-0.09375 -4.125q-0.796875 -0.984375 -1.59375 -1.59375l0.609375 -0.46875q0.796875 0.609375 1.59375 1.59375l-0.609375 0.46875zm1.125 -0.890625q-0.609375 -0.796875 -1.546875 -1.546875l0.609375 -0.46875q0.796875 0.5625 1.546875 1.546875l-0.609375 0.46875zm10.59375 4.875l-3.046875 0l0 3.5625l-0.9375 0l0 -3.5625l-2.8125 0q-0.09375 2.4375 -1.453125 3.890625l-0.75 -0.75q1.265625 -1.40625 1.265625 -3.28125l0 -6.0l8.671875 0l0 8.953125q0 0.75 -0.75 0.75l-1.3125 0l-0.234375 -1.03125l1.171875 0q0.1875 0 0.1875 -0.1875l0 -2.34375zm-6.796875 -2.625l0 1.734375l2.8125 0l0 -1.734375l-2.8125 0zm0 -2.625l0 1.734375l2.8125 0l0 -1.734375l-2.8125 0zm3.75 2.625l0 1.734375l3.046875 0l0 -1.734375l-3.046875 0zm0 -2.625l0 1.734375l3.046875 0l0 -1.734375l-3.046875 0z" fill-rule="nonzero"/><path fill="#000000" d="m164.54376 63.602474l-4.078125 0q-1.171875 0 -1.171875 -1.21875l0 -2.53125l-3.75 0l0 -1.03125l3.75 0l0 -2.15625l-2.859375 0l0 -1.03125l7.453125 0l0 1.03125l-3.515625 0l0 2.15625l4.6875 0l0 1.03125l-4.6875 0l0 2.15625q0 0.5625 0.515625 0.5625l3.703125 0l-0.046875 1.03125zm1.734375 -3.703125l0 -1.03125l10.453125 0l0 1.03125l-10.453125 0zm15.5625 -4.875q-0.1875 0.5625 -0.46875 1.078125l3.140625 0l0.515625 -0.1875l0.609375 0.609375q0.1875 0.234375 -0.1875 0.375q-0.375 1.875 -1.125 3.421875l1.125 0.75l-0.703125 1.03125l-1.03125 -0.75q-1.359375 1.96875 -3.890625 3.2343712l-1.078125 -0.7968712q2.8125 -1.171875 4.03125 -3.09375q-1.171875 -0.75 -2.296875 -1.359375l0.5625 -0.84375q1.453125 0.65625 2.390625 1.21875q0.703125 -1.453125 0.84375 -2.578125l-3.421875 0q-0.890625 1.59375 -2.203125 2.90625l-0.890625 -0.609375q2.390625 -2.484375 3.140625 -5.25l1.125 0.46875q0.375 0.1875 -0.1875 0.375zm5.15625 4.875l0 -1.03125l10.453125 0l0 1.03125l-10.453125 0z" fill-rule="nonzero"/><path fill="#eeeeee" d="m666.7349 87.526245l114.01575 0l0 52.850403l-114.01575 0z" fill-rule="evenodd"/><path stroke="#595959" stroke-width="1.0" stroke-linejoin="round" stroke-linecap="butt" d="m666.7349 87.526245l114.01575 0l0 52.850403l-114.01575 0z" fill-rule="evenodd"/><path fill="#000000" d="m681.4068 109.42457q-0.1875 0.796875 -0.375 1.3125l5.765625 0l0 0.890625l-6.0 0q-0.421875 1.265625 -0.890625 2.0625l5.765625 0l0 5.203125l-0.9375 0l0 -0.515625l-4.640625 0l0 0.703125l-0.9375 0l0 -4.3125q-0.9375 1.3125 -2.296875 2.15625l-0.65625 -0.9375q2.53125 -1.359375 3.5625 -4.359375l-3.234375 0l0 -0.890625l3.46875 0q0.328125 -1.078125 0.421875 -1.875l0.984375 0.1875q0.46875 0.09375 0 0.375zm3.328125 5.15625l-4.640625 0l0 2.90625l4.640625 0l0 -2.90625zm4.21875 -3.890625l0 -0.890625l4.3125 0l0 -1.03125l0.890625 0q0.375 0.046875 0.046875 0.28125l0 0.75l4.21875 0l0 0.890625l-4.21875 0l0 0.9375l3.28125 0l0 4.265625l-0.9375 0l0 -0.234375l-2.34375 0l0 0.9375l4.875 0l0 0.890625l-4.875 0l0 1.96875l-0.9375 0l0 -1.96875l-4.875 0l0 -0.890625l4.875 0l0 -0.9375l-2.34375 0l0 0.28125l-0.9375 0l0 -4.3125l3.28125 0l0 -0.9375l-4.3125 0zm5.25 4.21875l2.34375 0l0 -0.890625l-2.34375 0l0 0.890625zm-3.28125 -1.640625l2.34375 0l0 -0.890625l-2.34375 0l0 0.890625zm3.28125 0l2.34375 0l0 -0.890625l-2.34375 0l0 0.890625zm-3.28125 1.640625l2.34375 0l0 -0.890625l-2.34375 0l0 0.890625zm16.734375 -5.015625q-0.84375 1.640625 -2.625 2.765625l-0.375 -0.890625q1.921875 -1.125 2.578125 -3.046875l0.984375 0.140625q0.1875 0.1875 -0.140625 0.234375l-0.046875 0.140625q1.171875 1.546875 3.046875 2.34375l-0.375 0.984375q-2.015625 -1.03125 -3.046875 -2.671875zm-1.40625 1.921875l3.140625 0l0 0.75l-3.140625 0l0 -0.75zm3.515625 4.6875l-0.703125 0l0 2.671875l-0.796875 0l0 -2.671875l-0.703125 0l0 2.671875l-0.796875 0l0 -2.671875l-0.703125 0l0 2.953125l-0.796875 0l0 -6.140625l5.296875 0l0 5.4375q0 0.703125 -0.5625 0.703125l-0.515625 0l-0.140625 -0.75l0.234375 0q0.1875 0 0.1875 -0.1875l0 -2.015625zm-3.0 -2.4375l-0.703125 0l0 1.6875l0.703125 0l0 -1.6875zm1.5 0l-0.703125 0l0 1.6875l0.703125 0l0 -1.6875zm1.5 0l-0.703125 0l0 1.6875l0.703125 0l0 -1.6875zm-5.25 1.78125l-1.546875 0l0 0.84375l1.734375 0l0 0.75l-1.734375 0l0 2.0625l-0.796875 0l0 -2.0625l-1.78125 0l0 -0.75l1.78125 0l0 -0.84375l-0.75 0l-0.796875 0l0 -4.125l1.546875 0l0 -0.796875l-1.640625 0l0 -0.75l1.640625 0l0 -1.453125l0.75 0q0.375 0.046875 0.046875 0.28125l0 1.171875l1.640625 0l0 0.75l-1.640625 0l0 0.796875l1.546875 0l0 4.125zm-2.34375 -3.375l-0.75 0l0 1.03125l0.75 0l0 -1.03125zm1.546875 0l-0.75 0l0 1.03125l0.75 0l0 -1.03125zm-1.546875 1.59375l-0.75 0l0 1.03125l0.75 0l0 -1.03125zm1.546875 0l-0.75 0l0 1.03125l0.75 0l0 -1.03125zm17.625 4.265625l-4.078125 0q-1.171875 0 -1.171875 -1.21875l0 -2.53125l-3.75 0l0 -1.03125l3.75 0l0 -2.15625l-2.859375 0l0 -1.03125l7.453125 0l0 1.03125l-3.515625 0l0 2.15625l4.6875 0l0 1.03125l-4.6875 0l0 2.15625q0 0.5625 0.515625 0.5625l3.703125 0l-0.046875 1.03125zm1.734375 -3.703125l0 -1.03125l10.453125 0l0 1.03125l-10.453125 0zm15.5625 -4.875q-0.1875 0.5625 -0.46875 1.078125l3.140625 0l0.515625 -0.1875l0.609375 0.609375q0.1875 0.234375 -0.1875 0.375q-0.375 1.875 -1.125 3.421875l1.125 0.75l-0.703125 1.03125l-1.03125 -0.75q-1.359375 1.96875 -3.890625 3.234375l-1.078125 -0.796875q2.8125 -1.171875 4.03125 -3.09375q-1.171875 -0.75 -2.296875 -1.359375l0.5625 -0.84375q1.453125 0.65625 2.390625 1.21875q0.703125 -1.453125 0.84375 -2.578125l-3.421875 0q-0.890625 1.59375 -2.203125 2.90625l-0.890625 -0.609375q2.390625 -2.484375 3.140625 -5.25l1.125 0.46875q0.375 0.1875 -0.1875 0.375zm5.15625 4.875l0 -1.03125l10.453125 0l0 1.03125l-10.453125 0z" fill-rule="nonzero"/><path fill="#eeeeee" d="m666.7349 186.521l114.01575 0l0 52.850388l-114.01575 0z" fill-rule="evenodd"/><path stroke="#595959" stroke-width="1.0" stroke-linejoin="round" stroke-linecap="butt" d="m666.7349 186.521l114.01575 0l0 52.850388l-114.01575 0z" fill-rule="evenodd"/><path fill="#000000" d="m686.6568 209.68495l0 1.03125l-5.53125 0q-0.046875 0.515625 -0.5625 2.015625l5.25 0l0 1.03125l-2.71875 0l0 3.140625l3.65625 0l0 1.03125l-8.390625 0l0 -1.03125l3.65625 0l0 -3.140625l-1.828125 0q-0.984375 1.875 -2.859375 3.421875l-0.703125 -0.9375q2.765625 -2.25 3.421875 -5.53125l-3.1875 0l0 -1.03125l3.375 0q0.09375 -0.75 0.234375 -1.828125l1.21875 0.28125q0.1875 0.140625 -0.1875 0.28125q-0.09375 0.609375 -0.1875 1.265625l5.34375 0zm2.296875 0l0 -0.890625l4.3125 0l0 -1.03125l0.890625 0q0.375 0.046875 0.046875 0.28125l0 0.75l4.21875 0l0 0.890625l-4.21875 0l0 0.9375l3.28125 0l0 4.265625l-0.9375 0l0 -0.234375l-2.34375 0l0 0.9375l4.875 0l0 0.890625l-4.875 0l0 1.96875l-0.9375 0l0 -1.96875l-4.875 0l0 -0.890625l4.875 0l0 -0.9375l-2.34375 0l0 0.28125l-0.9375 0l0 -4.3125l3.28125 0l0 -0.9375l-4.3125 0zm5.25 4.21875l2.34375 0l0 -0.890625l-2.34375 0l0 0.890625zm-3.28125 -1.640625l2.34375 0l0 -0.890625l-2.34375 0l0 0.890625zm3.28125 0l2.34375 0l0 -0.890625l-2.34375 0l0 0.890625zm-3.28125 1.640625l2.34375 0l0 -0.890625l-2.34375 0l0 0.890625zm16.734375 -5.015625q-0.84375 1.640625 -2.625 2.765625l-0.375 -0.890625q1.921875 -1.125 2.578125 -3.046875l0.984375 0.140625q0.1875 0.1875 -0.140625 0.234375l-0.046875 0.140625q1.171875 1.546875 3.046875 2.34375l-0.375 0.984375q-2.015625 -1.03125 -3.046875 -2.671875zm-1.40625 1.921875l3.140625 0l0 0.75l-3.140625 0l0 -0.75zm3.515625 4.6875l-0.703125 0l0 2.671875l-0.796875 0l0 -2.671875l-0.703125 0l0 2.671875l-0.796875 0l0 -2.671875l-0.703125 0l0 2.953125l-0.796875 0l0 -6.140625l5.296875 0l0 5.4375q0 0.703125 -0.5625 0.703125l-0.515625 0l-0.140625 -0.75l0.234375 0q0.1875 0 0.1875 -0.1875l0 -2.015625zm-3.0 -2.4375l-0.703125 0l0 1.6875l0.703125 0l0 -1.6875zm1.5 0l-0.703125 0l0 1.6875l0.703125 0l0 -1.6875zm1.5 0l-0.703125 0l0 1.6875l0.703125 0l0 -1.6875zm-5.25 1.78125l-1.546875 0l0 0.84375l1.734375 0l0 0.75l-1.734375 0l0 2.0625l-0.796875 0l0 -2.0625l-1.78125 0l0 -0.75l1.78125 0l0 -0.84375l-0.75 0l-0.796875 0l0 -4.125l1.546875 0l0 -0.796875l-1.640625 0l0 -0.75l1.640625 0l0 -1.453125l0.75 0q0.375 0.046875 0.046875 0.28125l0 1.171875l1.640625 0l0 0.75l-1.640625 0l0 0.796875l1.546875 0l0 4.125zm-2.34375 -3.375l-0.75 0l0 1.03125l0.75 0l0 -1.03125zm1.546875 0l-0.75 0l0 1.03125l0.75 0l0 -1.03125zm-1.546875 1.59375l-0.75 0l0 1.03125l0.75 0l0 -1.03125zm1.546875 0l-0.75 0l0 1.03125l0.75 0l0 -1.03125zm17.625 4.265625l-4.078125 0q-1.171875 0 -1.171875 -1.21875l0 -2.53125l-3.75 0l0 -1.03125l3.75 0l0 -2.15625l-2.859375 0l0 -1.03125l7.453125 0l0 1.03125l-3.515625 0l0 2.15625l4.6875 0l0 1.03125l-4.6875 0l0 2.15625q0 0.5625 0.515625 0.5625l3.703125 0l-0.046875 1.03125zm1.734375 -3.703125l0 -1.03125l10.453125 0l0 1.03125l-10.453125 0zm15.5625 -4.875q-0.1875 0.5625 -0.46875 1.078125l3.140625 0l0.515625 -0.1875l0.609375 0.609375q0.1875 0.234375 -0.1875 0.375q-0.375 1.875 -1.125 3.421875l1.125 0.75l-0.703125 1.03125l-1.03125 -0.75q-1.359375 1.96875 -3.890625 3.234375l-1.078125 -0.796875q2.8125 -1.171875 4.03125 -3.09375q-1.171875 -0.75 -2.296875 -1.359375l0.5625 -0.84375q1.453125 0.65625 2.390625 1.21875q0.703125 -1.453125 0.84375 -2.578125l-3.421875 0q-0.890625 1.59375 -2.203125 2.90625l-0.890625 -0.609375q2.390625 -2.484375 3.140625 -5.25l1.125 0.46875q0.375 0.1875 -0.1875 0.375zm5.15625 4.875l0 -1.03125l10.453125 0l0 1.03125l-10.453125 0z" fill-rule="nonzero"/><path fill="#000000" fill-opacity="0.0" d="m603.4593 114.92782l63.275635 -0.97637177" fill-rule="evenodd"/><path stroke="#595959" stroke-width="8.0" stroke-linejoin="round" stroke-linecap="butt" d="m603.4593 114.92782l63.275635 -0.97637177" fill-rule="evenodd"/><path fill="#000000" fill-opacity="0.0" d="m603.45404 220.6378l0 0" fill-rule="evenodd"/><path stroke="#595959" stroke-width="8.0" stroke-linejoin="round" stroke-linecap="butt" d="m603.45404 220.6378l0 0" fill-rule="evenodd"/><path fill="#000000" fill-opacity="0.0" d="m604.2467 214.33202l62.48822 -1.3858185" fill-rule="evenodd"/><path stroke="#595959" stroke-width="8.0" stroke-linejoin="round" stroke-linecap="butt" d="m604.2467 214.33202l62.48822 -1.3858185" fill-rule="evenodd"/><path fill="#000000" fill-opacity="0.0" d="m428.3596 90.490814l-84.20474 0l0 -38.267715l-84.20471 0" fill-rule="evenodd"/><path stroke="#595959" stroke-width="8.0" stroke-linejoin="round" stroke-linecap="butt" d="m428.3596 90.490814l-84.20474 0l0 -38.267715l-84.20471 0" fill-rule="evenodd"/><path fill="#eeeeee" d="m511.95013 21.853018l96.22046 0l0 38.267715l-96.22046 0z" fill-rule="evenodd"/><path stroke="#595959" stroke-width="1.0" stroke-linejoin="round" stroke-linecap="butt" d="m511.95013 21.853018l96.22046 0l0 38.267715l-96.22046 0z" fill-rule="evenodd"/><path fill="#000000" d="m545.5701 33.161877q2.171875 1.671875 4.3125 3.859375l-1.015625 0.875q-2.140625 -2.25 -4.109375 -3.765625q-1.984375 2.125 -4.53125 3.8125l-0.953125 -0.875q5.375 -3.5 6.90625 -7.000002l-5.546875 0.359375l-0.140625 -1.21875l5.890625 -0.265625l0.609375 -0.140625l0.8125 0.8125q0.34375 0.34375 -0.203125 0.453125q-0.96875 1.671875 -2.03125 3.093752zm9.902344 -4.828127q-0.203125 0.609375 -0.515625 1.171875l3.40625 0l0.5625 -0.203125l0.65625 0.65625q0.203125 0.265625 -0.203125 0.40625q-0.40625 2.031252 -1.21875 3.718752l1.21875 0.8125l-0.765625 1.109375l-1.109375 -0.8125q-1.484375 2.140625 -4.21875 3.515625l-1.171875 -0.875q3.046875 -1.265625 4.375 -3.34375q-1.28125 -0.8125 -2.5 -1.484375l0.609375 -0.90625q1.578125 0.703125 2.59375 1.3125q0.765625 -1.5625019 0.921875 -2.781252l-3.71875 0q-0.953125 1.7187519 -2.375 3.140627l-0.96875 -0.65625q2.59375 -2.687502 3.40625 -5.687502l1.21875 0.5q0.40625 0.203125 -0.203125 0.40625zm5.578125 5.281252l0 -1.109375l11.328125 0l0 1.109375l-11.328125 0zm14.6796875 -1.9218769q2.484375 0.7031269 5.03125 1.9218769l-0.609375 1.171875q-2.703125 -1.375 -4.421875 -1.828125l0 5.28125l-1.171875 0l0 -10.156252l1.015625 0q0.609375 0.046875 0.15625 0.40625l0 3.203125z" fill-rule="nonzero"/><path fill="#000000" d="m552.1209 48.599377q1.828125 1.9375 2.734375 3.5625l-1.109375 0.765625q-1.078125 -1.890625 -2.59375 -3.515625l0.96875 -0.8125zm-2.4375 -2.171875l4.671875 0l0 1.109375l-4.671875 0l0 7.0625l-1.171875 0l0 -7.0625l-4.578125 0l0 -1.109375l4.578125 0l0 -2.84375l1.0625 0q0.5625 0.09375 0.109375 0.40625l0 2.4375zm-2.703125 2.78125q0.3125 0.265625 -0.203125 0.359375q-0.75 1.671875 -1.921875 3.5l-1.125 -0.609375q1.28125 -1.828125 2.140625 -3.859375l1.109375 0.609375zm6.15625 -3.34375q-0.921875 -0.96875 -1.6875 -1.578125l0.609375 -0.609375q0.875 0.65625 1.6875 1.53125l-0.609375 0.65625zm1.421875 -0.71875q-0.921875 -1.015625 -1.6875 -1.671875l0.671875 -0.5625q0.859375 0.671875 1.671875 1.625l-0.65625 0.609375zm6.09375 -0.8125q-0.203125 0.609375 -0.515625 1.171875l3.40625 0l0.5625 -0.203125l0.65625 0.65625q0.203125 0.265625 -0.203125 0.40625q-0.40625 2.03125 -1.21875 3.71875l1.21875 0.8125l-0.765625 1.109375l-1.109375 -0.8125q-1.484375 2.140625 -4.21875 3.515625l-1.171875 -0.875q3.046875 -1.265625 4.375 -3.34375q-1.28125 -0.8125 -2.5 -1.484375l0.609375 -0.90625q1.578125 0.703125 2.59375 1.3125q0.765625 -1.5625 0.921875 -2.78125l-3.71875 0q-0.953125 1.71875 -2.375 3.140625l-0.96875 -0.65625q2.59375 -2.6875 3.40625 -5.6875l1.21875 0.5q0.40625 0.203125 -0.203125 0.40625zm15.53125 3.5625q-2.6875 5.578125 -9.03125 5.890625q-0.265625 0.65625 -0.515625 0.109375l-0.40625 -1.328125q6.609375 -0.15625 8.890625 -5.4375l1.0625 0.765625zm-7.15625 0q-1.375 -1.265625 -2.59375 -2.078125l0.859375 -1.078125q1.078125 0.671875 2.703125 2.1875l-0.96875 0.96875z" fill-rule="nonzero"/><path fill="#000000" fill-opacity="0.0" d="m485.13123 125.98688l0 -0.7872391l56.0 0l0 -61.543472" fill-rule="evenodd"/><path stroke="#595959" stroke-width="1.0" stroke-linejoin="round" stroke-linecap="butt" d="m485.13123 125.98688l0 -0.7872391l56.0 0l0 -61.543472" fill-rule="evenodd"/><path fill="#000000" fill-opacity="0.0" d="m483.9449 163.44882l76.12598 0l0 -103.338585" fill-rule="evenodd"/><path stroke="#595959" stroke-width="1.0" stroke-linejoin="round" stroke-linecap="butt" d="m483.9449 163.44882l76.12598 0l0 -103.338585" fill-rule="evenodd"/><path fill="#000000" fill-opacity="0.0" d="m485.1312 140.37796l51.275604 0l0 32.314957l-51.275604 0z" fill-rule="evenodd"/><path fill="#000000" d="m499.49057 158.7117l0 0.90625l-5.03125 0q-0.015625 -0.34375 0.109375 -0.65625q0.1875 -0.515625 0.609375 -1.015625q0.421875 -0.5 1.234375 -1.140625q1.234375 -1.03125 1.671875 -1.625q0.4375 -0.59375 0.4375 -1.125q0 -0.5625 -0.40625 -0.9375q-0.390625 -0.390625 -1.03125 -0.390625q-0.671875 0 -1.078125 0.40625q-0.40625 0.40625 -0.40625 1.125l-0.96875 -0.09375q0.09375 -1.078125 0.734375 -1.640625q0.65625 -0.5625 1.734375 -0.5625q1.109375 0 1.75 0.609375q0.640625 0.609375 0.640625 1.5q0 0.46875 -0.1875 0.90625q-0.1875 0.4375 -0.625 0.9375q-0.4375 0.484375 -1.453125 1.328125q-0.828125 0.71875 -1.078125 0.96875q-0.234375 0.25 -0.390625 0.5l3.734375 0zm2.4577332 -3.234375q-0.59375 -0.203125 -0.875 -0.59375q-0.28125 -0.40625 -0.28125 -0.953125q0 -0.84375 0.59375 -1.40625q0.609375 -0.5625 1.59375 -0.5625q1.0 0 1.609375 0.578125q0.609375 0.578125 0.609375 1.40625q0 0.53125 -0.28125 0.9375q-0.265625 0.390625 -0.84375 0.59375q0.703125 0.234375 1.0625 0.75q0.375 0.5 0.375 1.203125q0 0.984375 -0.6875 1.65625q-0.6875 0.65625 -1.828125 0.65625q-1.125 0 -1.8125 -0.65625q-0.6875 -0.671875 -0.6875 -1.671875q0 -0.75 0.375 -1.25q0.375 -0.5 1.078125 -0.6875zm-0.1875 -1.578125q0 0.53125 0.34375 0.875q0.34375 0.34375 0.90625 0.34375q0.53125 0 0.875 -0.328125q0.359375 -0.34375 0.359375 -0.84375q0 -0.515625 -0.359375 -0.859375q-0.359375 -0.359375 -0.890625 -0.359375q-0.53125 0 -0.890625 0.34375q-0.34375 0.34375 -0.34375 0.828125zm-0.3125 3.515625q0 0.40625 0.1875 0.78125q0.203125 0.375 0.578125 0.578125q0.375 0.203125 0.796875 0.203125q0.671875 0 1.109375 -0.421875q0.4375 -0.4375 0.4375 -1.109375q0 -0.671875 -0.453125 -1.109375q-0.453125 -0.453125 -1.125 -0.453125q-0.65625 0 -1.09375 0.4375q-0.4375 0.4375 -0.4375 1.09375zm5.2390137 4.328125l0 -7.65625l0.859375 0l0 0.71875q0.296875 -0.421875 0.671875 -0.625q0.390625 -0.21875 0.921875 -0.21875q0.703125 0 1.25 0.375q0.546875 0.359375 0.8125 1.03125q0.28125 0.65625 0.28125 1.453125q0 0.84375 -0.3125 1.53125q-0.296875 0.671875 -0.875 1.03125q-0.578125 0.359375 -1.21875 0.359375q-0.46875 0 -0.84375 -0.1875q-0.375 -0.203125 -0.609375 -0.515625l0 2.703125l-0.9375 0zm0.84375 -4.859375q0 1.0625 0.4375 1.578125q0.4375 0.515625 1.046875 0.515625q0.625 0 1.0625 -0.53125q0.453125 -0.53125 0.453125 -1.640625q0 -1.046875 -0.4375 -1.578125q-0.4375 -0.53125 -1.046875 -0.53125q-0.59375 0 -1.0625 0.5625q-0.453125 0.5625 -0.453125 1.625zm5.0827637 -3.8125l0 -1.078125l0.9375 0l0 1.078125l-0.9375 0zm0 6.546875l0 -5.53125l0.9375 0l0 5.53125l-0.9375 0zm2.3674316 0l0 -5.53125l0.84375 0l0 0.796875q0.609375 -0.921875 1.75 -0.921875q0.5 0 0.921875 0.1875q0.421875 0.171875 0.625 0.46875q0.21875 0.296875 0.296875 0.6875q0.046875 0.265625 0.046875 0.921875l0 3.390625l-0.9375 0l0 -3.359375q0 -0.578125 -0.109375 -0.859375q-0.109375 -0.28125 -0.390625 -0.453125q-0.265625 -0.171875 -0.640625 -0.171875q-0.59375 0 -1.03125 0.390625q-0.4375 0.375 -0.4375 1.4375l0 3.015625l-0.9375 0z" fill-rule="nonzero"/><path fill="#000000" fill-opacity="0.0" d="m485.1315 98.28346l43.212616 0l0 32.314957l-43.212616 0z" fill-rule="evenodd"/><path fill="#000000" d="m496.36588 117.52347l-2.09375 -5.53125l0.984375 0l1.1875 3.3125q0.1875 0.53125 0.359375 1.109375q0.109375 -0.4375 0.34375 -1.046875l1.21875 -3.375l0.96875 0l-2.09375 5.53125l-0.875 0zm7.40625 -2.03125l0.921875 0.125q-0.15625 0.953125 -0.78125 1.5q-0.625 0.53125 -1.53125 0.53125q-1.125 0 -1.8125 -0.734375q-0.6875 -0.75 -0.6875 -2.125q0 -0.90625 0.296875 -1.578125q0.296875 -0.671875 0.890625 -1.0q0.609375 -0.34375 1.328125 -0.34375q0.890625 0 1.46875 0.46875q0.578125 0.453125 0.734375 1.28125l-0.90625 0.140625q-0.140625 -0.546875 -0.46875 -0.828125q-0.328125 -0.28125 -0.796875 -0.28125q-0.703125 0 -1.15625 0.515625q-0.4375 0.5 -0.4375 1.59375q0 1.109375 0.421875 1.625q0.4375 0.5 1.125 0.5q0.546875 0 0.90625 -0.34375q0.375 -0.34375 0.484375 -1.046875zm5.328125 0l0.921875 0.125q-0.15625 0.953125 -0.78125 1.5q-0.625 0.53125 -1.53125 0.53125q-1.125 0 -1.8125 -0.734375q-0.6875 -0.75 -0.6875 -2.125q0 -0.90625 0.296875 -1.578125q0.296875 -0.671875 0.890625 -1.0q0.609375 -0.34375 1.328125 -0.34375q0.890625 0 1.46875 0.46875q0.578125 0.453125 0.734375 1.28125l-0.90625 0.140625q-0.140625 -0.546875 -0.46875 -0.828125q-0.328125 -0.28125 -0.796875 -0.28125q-0.703125 0 -1.15625 0.515625q-0.4375 0.5 -0.4375 1.59375q0 1.109375 0.421875 1.625q0.4375 0.5 1.125 0.5q0.546875 0 0.90625 -0.34375q0.375 -0.34375 0.484375 -1.046875z" fill-rule="nonzero"/><path fill="#000000" fill-opacity="0.0" d="m262.6942 156.53543l92.28348 0" fill-rule="evenodd"/><path stroke="#595959" stroke-width="1.0" stroke-linejoin="round" stroke-linecap="butt" d="m262.6942 156.53543l92.28348 0" fill-rule="evenodd"/><path fill="#000000" fill-opacity="0.0" d="m264.68002 130.71391l43.212616 0l0 32.314957l-43.212616 0z" fill-rule="evenodd"/><path fill="#000000" d="m278.07065 146.96953l0 -0.90625l3.234375 0l0 2.828125q-0.75 0.59375 -1.546875 0.890625q-0.78125 0.296875 -1.609375 0.296875q-1.125 0 -2.046875 -0.46875q-0.921875 -0.484375 -1.390625 -1.390625q-0.46875 -0.921875 -0.46875 -2.046875q0 -1.109375 0.46875 -2.078125q0.46875 -0.96875 1.34375 -1.4375q0.875 -0.46875 2.015625 -0.46875q0.828125 0 1.484375 0.28125q0.671875 0.265625 1.046875 0.75q0.390625 0.46875 0.59375 1.234375l-0.921875 0.25q-0.171875 -0.578125 -0.421875 -0.90625q-0.25 -0.34375 -0.734375 -0.53125q-0.46875 -0.203125 -1.046875 -0.203125q-0.6875 0 -1.203125 0.21875q-0.5 0.203125 -0.8125 0.546875q-0.296875 0.34375 -0.46875 0.75q-0.296875 0.703125 -0.296875 1.53125q0 1.03125 0.34375 1.71875q0.359375 0.671875 1.03125 1.015625q0.671875 0.328125 1.421875 0.328125q0.65625 0 1.28125 -0.25q0.625 -0.25 0.953125 -0.546875l0 -1.40625l-2.25 0zm4.710663 2.984375l0 -7.625l1.03125 0l4.015625 5.984375l0 -5.984375l0.96875 0l0 7.625l-1.046875 0l-4.0 -6.0l0 6.0l-0.96875 0zm7.711212 0l0 -7.625l2.625 0q0.890625 0 1.359375 0.109375q0.65625 0.140625 1.109375 0.546875q0.609375 0.5 0.90625 1.296875q0.296875 0.796875 0.296875 1.8125q0 0.875 -0.203125 1.546875q-0.203125 0.671875 -0.515625 1.109375q-0.3125 0.4375 -0.703125 0.6875q-0.375 0.25 -0.90625 0.390625q-0.53125 0.125 -1.21875 0.125l-2.75 0zm1.0 -0.90625l1.625 0q0.765625 0 1.1875 -0.140625q0.4375 -0.140625 0.6875 -0.390625q0.359375 -0.359375 0.5625 -0.953125q0.203125 -0.609375 0.203125 -1.484375q0 -1.1875 -0.40625 -1.828125q-0.390625 -0.65625 -0.953125 -0.875q-0.40625 -0.15625 -1.296875 -0.15625l-1.609375 0l0 5.828125z" fill-rule="nonzero"/></g></svg>